<!-- icon666.com - MILLIONS OF FREE VECTOR ICONS --><svg id="Bahan_copy_2" viewBox="0 0 64 64" xmlns="http://www.w3.org/2000/svg" data-name="Bahan copy 2"><g fill="rgb(0,0,0)"><circle cx="10.73" cy="9.9" r="5.9" transform="matrix(.973 -.23 .23 .973 -1.988 2.73)"></circle><path d="m56.17 5.09h-34.25a3.00886 3.00886 0 0 0 -3 3v3.62a3.00883 3.00883 0 0 0 3 3h34.25a3.00233 3.00233 0 0 0 3-3v-3.62a3.00237 3.00237 0 0 0 -3-3z"></path><path d="m10.73 18.73a5.905 5.905 0 1 0 5.9 5.9 5.90444 5.90444 0 0 0 -5.9-5.9z"></path><path d="m56.17 19.83h-34.25a3.00241 3.00241 0 0 0 -3 3v3.61a3.00241 3.00241 0 0 0 3 3h34.25a2.996 2.996 0 0 0 3-3v-3.61a2.996 2.996 0 0 0 -3-3z"></path><path d="m10.73 33.46a5.905 5.905 0 1 0 5.9 5.91 5.90658 5.90658 0 0 0 -5.9-5.91z"></path><path d="m56.17 34.56h-34.25a3.00237 3.00237 0 0 0 -3 3v3.61a3.00241 3.00241 0 0 0 3 3h34.25a2.996 2.996 0 0 0 3-3v-3.61a2.99593 2.99593 0 0 0 -3-3z"></path><circle cx="10.73" cy="54.1" r="5.9" transform="matrix(.973 -.23 .23 .973 -12.143 3.913)"></circle><path d="m56.17 49.29h-34.25a3.00886 3.00886 0 0 0 -3 3v3.62a3.00883 3.00883 0 0 0 3 3h34.25a3.00233 3.00233 0 0 0 3-3v-3.62a3.00237 3.00237 0 0 0 -3-3z"></path></g></svg>