<!-- icon666.com - MILLIONS OF FREE VECTOR ICONS --><svg id="Capa_1" enable-background="new 0 0 512 512" viewBox="0 0 512 512" xmlns="http://www.w3.org/2000/svg"><g id="Trash_Can"><g><path d="m296 120h-80c-11.046 0-20-8.954-20-20s8.954-20 20-20h80c11.046 0 20 8.954 20 20s-8.954 20-20 20z"></path></g><g><path d="m456 160h-400c-11.046 0-20 8.954-20 20s8.954 20 20 20h22.699l37.893 260.452c4.157 29.387 29.696 51.548 59.408 51.548h160c29.712 0 55.251-22.161 59.396-51.469l37.905-260.531h22.699c11.046 0 20-8.954 20-20s-8.954-20-20-20zm-100.199 294.851c-1.383 9.776-9.895 17.149-19.801 17.149h-160c-9.906 0-18.418-7.373-19.812-17.228l-37.068-254.772h273.76z"></path><path d="m115.31 119.065c10.529 3.336 21.771-2.493 25.107-13.023l16.51-52.097c2.644-8.341 10.308-13.945 19.073-13.945h160c8.765 0 16.429 5.604 19.073 13.945l16.51 52.097c3.326 10.498 14.549 16.371 25.107 13.023 10.53-3.337 16.36-14.578 13.023-25.107l-16.51-52.097c-7.934-25.038-30.922-41.861-57.203-41.861h-160c-26.281 0-49.269 16.823-57.204 41.861l-16.51 52.097c-3.336 10.53 2.494 21.771 13.024 25.107z"></path><path d="m216 432c11.046 0 20-8.954 20-20v-152c0-11.046-8.954-20-20-20s-20 8.954-20 20v152c0 11.046 8.954 20 20 20z"></path><path d="m296 432c11.046 0 20-8.954 20-20v-152c0-11.046-8.954-20-20-20s-20 8.954-20 20v152c0 11.046 8.954 20 20 20z"></path></g></g></svg>